<?xml version="1.0" encoding="utf-8"?>
<!-- Generator: Adobe Illustrator 22.0.1, SVG Export Plug-In . SVG Version: 6.00 Build 0)  -->
<svg version="1.1" id="Слой_1" xmlns="http://www.w3.org/2000/svg" xmlns:xlink="http://www.w3.org/1999/xlink" x="0px" y="0px"
	 width="700px" height="700px" viewBox="0 0 700 700" style="enable-background:new 0 0 700 700;" xml:space="preserve">
<style type="text/css">
	.st0{fill:#FAD5A4;}
	.st1{fill:#513C18;}
	.st2{fill:#EF5E24;}
	.st3{fill:#FFFFFF;}
</style>
<path class="st0" d="M238.5,558.9c-21.5,0-45.5-4.3-70.5-12.7c-63.3-20.7-109.6-64.6-138.4-129.8c-11-25.3-17.2-49.3-20.7-66.5
	c12.4,20.2,31.2,48.2,46,61.1c17.8,15.1,38,17,52,17c8.6,0,17-0.8,24.8-1.6c6.7-0.5,13.2-1.3,19.1-1.3c5.4,0,9.7,0.5,12.9,1.6
	c3.8,1.3,8.9,3.2,14.3,5.4c32.6,12.1,87.5,32.6,127.6,39.1c15.1,2.4,28.8,3.8,41.2,3.8c7.8,0,13.7-0.5,18.3-1.1
	C355.9,497.5,322.3,558.9,238.5,558.9z"/>
<path class="st1" d="M347.3,469.7c-10.2,0-23.7-0.8-40.4-3.5c-46.8-7.5-115.5-35-141.1-44.2c-4.3-1.6-9.2-2.2-14.8-2.2
	c-12.7,0-28,2.7-43.9,2.7c-16.7,0-33.7-3-48.5-15.6C34.7,386.5,0,324,0,324s10.2,175.9,166.4,227.6c27.5,9.2,51.4,12.9,72.2,12.9
	c106.3,0,135.2-97.2,135.2-97.2S365.6,469.7,347.3,469.7z M51.7,415.3c19.1,16.4,40.7,18.3,55.5,18.3c8.9,0,17.2-0.8,25.3-1.6
	c6.7-0.5,12.9-1.3,18.6-1.3c4.8,0,8.6,0.5,11,1.3c3.8,1.3,8.6,3.2,14.3,5.4c32.8,12.4,87.8,32.9,128.7,39.3
	c15.3,2.4,29.3,3.8,42.3,3.8c0.8,0,1.6,0,2.4,0c-30.4,15.4-85.9,38.5-145.1,38.5c-17,0-33.9-1.9-50.9-6.2
	c-54.4-14.3-96.4-72.5-122.5-120.4C38.2,401.6,45.2,409.7,51.7,415.3z"/>
<path class="st0" d="M369.7,458.7c-29.6-16.4-148.1-84-170.2-126.6c-13.2-25.6-10.5-76.2-7.8-120.9c1.6-29.6,3.2-57.6,0.5-77.3
	C188.5,108.3,172,49,163.2,18c22.3,23.2,63,71.6,60.3,115.8c-1.1,19.4,16.4,30.7,38.5,45c20.5,13.2,45.8,29.6,66.5,57.6
	C384.2,312.7,373.7,428.2,369.7,458.7z"/>
<path class="st1" d="M332.5,233.5c-43.3-58.7-105.8-67.6-103.9-99.1C232.6,70,152.1,0,152.1,0s29.6,99.9,34.7,134.4
	c1.1,7.8,1.6,17,1.6,26.9c0,4,0,8.1-0.3,12.4c0,4.3-0.3,8.6-0.5,13.2c-0.3,6.7-0.8,13.7-1.1,20.7c-0.3,2.4-0.3,4.8-0.5,7
	c-1.3,23.7-2.7,48.5-1.6,70.3c1.1,19.7,3.8,36.9,10.2,49.3c0.5,0.8,0.8,1.6,1.3,2.4c0.8,1.6,1.9,3.2,3.2,4.8
	c0.5,0.8,1.1,1.6,1.9,2.4c1.3,1.6,2.7,3.5,4,5.1c0.8,0.8,1.6,1.6,2.4,2.7c10.2,11.3,24.5,23.4,40.4,35.6c2.4,1.9,4.8,3.8,7.5,5.7
	c6.2,4.6,12.7,9.2,19.1,13.5c1.3,0.8,2.7,1.9,4,2.7c10.5,7,21,13.7,31,20.2c1.3,0.8,2.4,1.6,3.8,2.4c2.4,1.6,4.8,3,7.3,4.6
	C350.5,454.6,374,467,374,467S399.3,324,332.5,233.5z M225.3,228.1c7.8-42.8-12.7-70.6-26.7-84.3c-0.3-4-0.5-7.5-1.1-11
	c-3-20.5-14.3-62.2-23.2-94c3,3.5,5.9,7.3,8.9,11c16.7,21.8,36.3,54.1,34.5,84c-1.3,22.4,18.3,35,40.9,49.8
	c19.9,12.9,45,29.1,64.9,56.3c50.9,68.9,45.5,171.8,41.5,210.1c-15.3-8.6-35.5-20.5-56.3-33.7C263,373,211.6,305.4,225.3,228.1z"/>
<path class="st0" d="M415.7,468.4c-15.9,0-28-2.7-34.5-4.6c13.7-30.7,83.7-184.5,129-217.6C536,227,566.7,188,600.9,129.8
	c17.5-29.6,31.5-56.8,38.8-71.1c16.2,37.4,42.8,113.4,28.3,142.5c-6.5,12.9-12.7,27.5-19.4,42.6C629.5,287.9,607.9,338,567,386
	C509.1,454.1,452.8,468.4,415.7,468.4L415.7,468.4z"/>
<path class="st1" d="M640,45.8c0,0-71.9,150.8-133,195.8c-51.7,38-133,225.2-133,225.2s16.2,6.7,41.7,6.7
	c37.4,0,95.8-14.3,155.3-84.3c55.7-65.4,76.7-136,101.5-186.1C693.5,161.9,640,45.8,640,45.8z M388.8,460
	c18.3-40.4,82.9-178.8,124.4-209.5c49-36.4,103.4-135.2,125.7-178.8c4.6,11,10,25.6,14.8,40.9c2.7,8.9,5.1,17,7,24.2
	c0.8,28.5-5.9,57.1-29.6,74.6c-24,17.8-21.8,106.7-76.2,162.1c-46.6,47.4-124.4,76.2-161,87.5C392.3,460.8,390.4,460.6,388.8,460z"
	/>
<path class="st0" d="M504.3,536.2c-27.5,0-88.6-42.6-118.7-65.7c28-7,104.7-25.3,142.2-25.3c4.6,0,8.3,0.3,11.3,0.8
	c7.3,1.3,14.5,2.2,21.3,2.2c33.7,0,53.8-17.5,70.3-31.2c9.7-8.1,17.8-15.4,26.9-17.8c8.9-2.4,23.4-3.5,32.8-3.8
	c-17.8,28.5-82.7,122.3-182.5,140.9C507,536.2,505.6,536.2,504.3,536.2z"/>
<path class="st1" d="M656.1,393.8c-27.2,7.5-45.2,49-95.8,49c-6.2,0-12.9-0.5-20.2-2.2c-3.5-0.5-7.5-0.8-12.4-0.8
	c-47.1,0-154,28.3-154,28.3s91.8,73.5,130.6,73.5c1.6,0,3.2,0,4.6-0.3C630.3,518.7,700,389.5,700,389.5S670.7,389.7,656.1,393.8z
	 M507,530.9c-0.8,0.3-1.6,0.3-2.7,0.3c-7.8,0-28-4.6-73.8-35c-12.4-8.1-23.7-16.4-32.6-22.9c33.4-8.1,97.2-22.6,129.8-22.6
	c4.3,0,7.8,0.3,10.2,0.8c7.5,1.3,15.1,2.2,22.3,2.2c35.5,0,56.8-18,73.8-32.6c9.2-7.8,17-14.5,24.8-16.7c5.1-1.3,12.9-2.4,20.5-3
	c-7,4.8-13.7,10.5-16.7,16.2c-18.6,35.8-75.9,76.5-115,101C534.7,523.9,521.2,528.2,507,530.9z"/>
<path class="st0" d="M489.5,694.9c-49,0-133.5-50.6-159.1-107.2c-2.7-6.2-4-23.2,18.8-67.9c8.6-17,18-32.6,23.7-41.5
	c6.7,14,19.9,40.1,29.3,48.2c26.9,22.9,88.8,50.4,125.7,50.4l0,0c3.5,0,6.5-0.3,9.4-0.8c19.1-3,52.2-32.6,71.3-51.2
	c-13.2,45.8-51.2,157.3-107.7,169.1C497.8,694.6,493.8,694.9,489.5,694.9z"/>
<path class="st1" d="M619.5,506.3L619.5,506.3c0,0-57.3,60.1-82.7,64.1c-2.7,0.5-5.7,0.5-8.6,0.5c-36.3,0-97.5-28-122.2-49
	c-12.1-10.2-32.3-55.2-32.3-55.2s0,0,0,0.3v-0.3c0,0-1.6,2.2-3.8,5.9c0.5-0.5,0.8-1.3,1.1-1.9c-0.3,0.5-0.8,1.1-1.1,1.9l0,0l0,0
	c0,0.3-0.3,0.5-0.5,0.5c-0.3,0.5-0.8,1.1-1.1,1.6c-0.3,0.3-0.3,0.5-0.5,1.1s-0.8,1.1-1.1,1.6c-0.3,0.3-0.5,0.8-0.8,1.1
	c-0.3,0.5-0.8,1.3-1.1,1.9s-0.5,0.8-0.8,1.3c-0.5,0.8-0.8,1.3-1.3,2.2c-0.3,0.5-0.5,0.8-0.8,1.1c-1.3,2.4-3,4.8-4.3,7.5
	c-0.3,0.5-0.5,0.8-0.8,1.3c-0.5,0.8-1.1,1.9-1.6,2.7c-0.3,0.5-0.5,1.1-0.8,1.6c-0.5,0.8-1.1,1.9-1.6,2.7c-0.3,0.5-0.5,1.1-0.8,1.6
	c-0.5,1.1-1.1,1.9-1.6,3c-0.3,0.5-0.5,1.1-0.8,1.6c-0.5,1.1-1.3,2.4-1.9,3.5c-0.3,0.3-0.3,0.8-0.5,1.1c-0.8,1.6-1.6,3.2-2.4,4.6
	c-0.3,0.3-0.3,0.8-0.5,1.1c-0.5,1.1-1.3,2.4-1.9,3.5c-0.3,0.5-0.5,1.1-0.8,1.6c-0.5,1.1-1.1,2.2-1.6,3.2c-0.3,0.5-0.5,1.1-0.8,1.9
	c-0.5,1.1-1.1,2.2-1.3,3.2c-0.3,0.5-0.5,1.1-0.8,1.9c-0.5,1.1-1.1,2.2-1.3,3.2c-0.3,0.5-0.5,1.1-0.5,1.6c-1.3,3.2-2.7,6.5-3.8,9.7
	c-0.3,0.5-0.3,1.1-0.5,1.3c-0.3,1.1-0.8,2.2-1.1,3.2c-0.3,0.5-0.3,1.1-0.5,1.6c-0.3,1.1-0.5,1.9-0.8,3c-0.3,0.5-0.3,1.1-0.5,1.6
	c-0.3,1.1-0.5,1.9-0.8,3c-0.3,0.5-0.3,1.1-0.5,1.6c-0.3,1.1-0.5,2.2-0.8,3.2c0,0.3-0.3,0.8-0.3,1.1c-0.3,1.3-0.5,2.7-0.8,4
	c0,0.3,0,0.5,0,0.8c0,1.1-0.3,1.9-0.3,3c0,0.5,0,0.8,0,1.3c0,0.8,0,1.6,0,2.4c0,0.5,0,0.8,0,1.3c0,0.8,0,1.3,0.3,2.2
	c0,0.5,0,0.8,0.3,1.3c0,0.8,0.3,1.3,0.3,2.2c0,0.3,0,0.5,0.3,1.1c0.3,1.1,0.5,1.9,1.1,2.7c5.7,12.4,14,24.8,24.5,36.4
	c5.9,6.7,12.4,12.9,19.4,19.1c5.1,4.6,10.8,8.9,16.4,13.2c3.8,2.7,7.5,5.4,11.6,8.1c1.9,1.3,4,2.4,5.9,3.8c4,2.4,8.1,4.8,11.8,7
	c26.1,14.3,53,23.2,74.3,23.2c4.6,0,8.9-0.5,12.9-1.3c5.9-1.3,11.6-3.5,17-6.5c5.4-3,10.8-7,15.9-11.3c3-2.7,5.9-5.7,8.9-8.9
	C592.8,618.7,619.5,506.3,619.5,506.3L619.5,506.3L619.5,506.3z M372.1,469.4c-0.3,0.5-0.5,0.8-1.1,1.6
	C371.5,470.3,371.8,469.7,372.1,469.4z M373.4,467.3c0,0.3-0.3,0.5-0.5,0.8C373.2,467.8,373.4,467.6,373.4,467.3z M372.9,468.1
	c-0.3,0.3-0.5,0.5-0.8,1.1C372.3,468.9,372.6,468.4,372.9,468.1z M372.3,489.1c7.5,14.8,18,33.9,26.7,41.2
	c27.5,23.4,91.3,51.7,129.2,51.7c3.8,0,7.3-0.3,10.2-0.8c12.9-1.9,31.2-13.7,56.3-36.1c0.8-0.5,1.6-1.3,2.2-1.9
	c-17.5,26.9-41.2,59-56,61.4c-25.6,4-32.8,70-87.2,70c-9.7,0-21-2.2-34.2-7c-5.7-3-11-6.5-16.7-10c-27.7-18.3-50.1-40.4-62.7-61.9
	c-3-11.9-3.5-24-2.4-35.8C344.3,540,357.3,513.6,372.3,489.1z"/>
<ellipse class="st1" cx="360.8" cy="390.3" rx="140" ry="140.1"/>
<path class="st2" d="M366.2,261c-68.4,0-123.8,55.5-123.8,123.9s55.5,123.9,123.8,123.9S490,453.3,490,384.9S434.5,261,366.2,261z"
	/>
<ellipse class="st3" cx="419.2" cy="386.5" rx="26.9" ry="26.9"/>
</svg>
