<svg xmlns="http://www.w3.org/2000/svg" x="0px" y="0px" width="260px" height="100px" viewBox="0 0 260 100">
	<g>
		<path fill="#513C18" d="M67.5,85.7c0.7-0.1,1.4-0.2,2-0.6c0.5-0.2,0.9-0.6,1.3-1.1c0.4-0.5,0.6-1.2,0.6-2.1V50c0-2.5,0.3-4.9,0.9-7.1c0.6-2.2,1.4-4.1,2.5-5.8c1-1.7,2.3-3,3.6-3.9c1.4-0.9,2.9-1.4,4.5-1.4c1.6,0,3.1,0.5,4.5,1.5c1.4,1,2.6,2.3,3.6,4c1,1.7,1.9,3.6,2.5,5.8c0.6,2.2,0.9,4.6,0.9,7.1c0,2.5-0.3,4.8-0.9,7c-0.6,2.2-1.4,4.2-2.5,5.8c-1,1.7-2.3,3-3.6,4c-1.4,1-2.9,1.5-4.5,1.5c-1,0-2-0.2-2.9-0.7c-0.9-0.5-1.8-1.1-2.6-1.7l1-1.2c0.7,0.7,1.4,1.2,2.3,1.7c0.8,0.4,1.6,0.6,2.3,0.6c1.1,0,2.1-0.4,3-1.3c0.9-0.9,1.7-2.1,2.4-3.7c0.7-1.6,1.2-3.4,1.6-5.4c0.4-2.1,0.6-4.2,0.6-6.5c0-2.3-0.2-4.5-0.6-6.6c-0.4-2.1-0.9-3.8-1.6-5.4c-0.7-1.5-1.5-2.7-2.4-3.6c-0.9-0.9-1.9-1.3-2.9-1.3c-1,0-2,0.4-2.9,1.3c-0.9,0.9-1.7,2.1-2.4,3.6c-0.7,1.5-1.2,3.3-1.6,5.3c-0.4,2-0.6,4.2-0.6,6.5v32c0,0.9,0.2,1.6,0.6,2.1c0.4,0.5,0.9,0.9,1.4,1.1c0.6,0.3,1.2,0.5,1.9,0.6V86H67.5V85.7z"/>
		<path fill="#513C18" d="M98.2,67.8c0.7-0.1,1.4-0.2,2-0.6c0.5-0.3,0.9-0.7,1.3-1.2c0.4-0.5,0.6-1.2,0.6-2.1V18.1c0-0.9-0.2-1.6-0.6-2.1c-0.4-0.5-0.8-0.9-1.3-1.2c-0.6-0.3-1.3-0.5-2-0.6V14h11.9v0.2c-0.7,0.1-1.4,0.2-1.9,0.6c-0.5,0.3-1,0.7-1.4,1.2c-0.4,0.5-0.6,1.2-0.6,2.1v14.8c1.1-0.4,2.1-0.6,3-0.8c0.9-0.2,1.8-0.2,2.7-0.2c2.7,0,4.7,0.7,6.1,2.1c1.3,1.4,2.4,2.9,3,4.5c0.7,2,1,4.2,1.1,6.6V64c0,0.9,0.2,1.5,0.6,2.1c0.4,0.5,0.9,0.9,1.4,1.1c0.6,0.3,1.2,0.5,1.9,0.6v0.3h-11.9v-0.3c0.7-0.1,1.4-0.2,2-0.6c0.5-0.3,0.9-0.7,1.3-1.2c0.4-0.5,0.6-1.2,0.6-2.1V45.1c0-2.5-0.2-4.5-0.7-6.1c-0.5-1.5-1.1-2.7-1.8-3.6c-0.7-0.9-1.5-1.5-2.4-1.8c-0.9-0.3-1.8-0.5-2.6-0.5c-0.6,0-1.2,0-1.7,0.1c-0.5,0.1-1,0.2-1.4,0.3c-0.4,0.2-0.9,0.4-1.3,0.6v29.8c0,0.9,0.2,1.6,0.6,2.1c0.4,0.5,0.9,0.9,1.4,1.2c0.6,0.3,1.2,0.5,1.9,0.6v0.3H98.2V67.8z"/>
		<path fill="#513C18" d="M137,32v0.2c-0.7,0.1-1.3,0.2-1.8,0.6c-0.4,0.2-0.8,0.6-1.1,1.1c-0.3,0.5-0.3,1.1,0,2l5.9,22.3l5.1-19.7c0.4-1.7,1.2-3.1,2.4-4.5c1.2-1.3,2.7-2,4.6-2v6.5h-0.3c0-0.7-0.3-1.3-0.8-1.8c-0.5-0.5-1.1-0.8-1.8-0.8c-0.7,0-1.3,0.3-1.8,0.8c-0.5,0.5-0.9,1.1-1.1,1.8l-7.7,29.5c-0.2,0.9-0.6,1.8-1,2.8c-0.4,1-0.9,1.9-1.4,2.7c-0.6,0.8-1.2,1.5-2,2.1c-0.8,0.6-1.7,0.9-2.7,0.9c-0.6,0-1-0.2-1.4-0.6c-0.4-0.4-0.6-0.8-0.6-1.4s0.2-1,0.6-1.4c0.4-0.4,0.9-0.6,1.4-0.6c0.7,0,1.2,0.2,1.5,0.7c0.3,0.5,0.5,1,0.4,1.7c0.6-0.3,1.1-0.9,1.7-1.8c0.6-0.9,1.1-1.9,1.5-2.9c0.4-1.1,0.7-2.2,0.9-3.3s0.2-2,0-2.8l-7.2-26.9c-0.4-1.3-1-2.5-1.7-3.5c-0.8-1-2-1.5-3.5-1.5V32H137z"/>
		<path fill="#513C18" d="M155.5,61.4c0.2,1.5,0.9,2.8,2.3,3.9c1.3,1.1,2.8,1.6,4.4,1.6c0.8,0,1.6-0.2,2.3-0.7c0.7-0.5,1.4-1.1,2-1.8c0.6-0.7,1-1.6,1.4-2.6c0.3-1,0.5-2.1,0.5-3.2c0-2.1-0.6-3.9-1.7-5.2c-1.1-1.3-2.6-2.4-4.4-3.3c-1.9-0.9-3.5-2.1-4.7-3.5c-1.3-1.4-1.9-3.2-1.9-5.3c0-1.3,0.2-2.5,0.7-3.7c0.5-1.2,1.1-2.2,2-3.1c0.8-0.9,1.8-1.6,2.9-2.1c1.1-0.5,2.3-0.8,3.6-0.8c1.1,0,2.1,0.2,3.1,0.6c1,0.4,1.7,0.6,2.2,0.6c0.5,0,0.7-0.3,0.6-1h0.2l0.7,6.5l-0.3,0.1c-0.2-1.5-1-2.8-2.3-3.9c-1.3-1.1-2.7-1.6-4.3-1.6c-1.6,0-2.9,0.8-3.9,2.5c-1,1.7-1.5,3.6-1.5,5.8c0,2,0.4,3.6,1.1,5.1c0.7,1.4,2,2.4,3.8,2.9c2.1,0.7,4,1.8,5.5,3.5c1.5,1.7,2.3,3.6,2.3,5.8c0,1.3-0.3,2.5-0.8,3.7c-0.6,1.2-1.3,2.2-2.3,3.1c-1,0.9-2,1.6-3.3,2.1c-1.2,0.5-2.5,0.8-3.8,0.8c-1,0-2-0.2-2.9-0.7c-1-0.5-1.8-0.7-2.4-0.7c-0.6,0-0.8,0.4-0.7,1.2h-0.2l-0.6-6.5L155.5,61.4z"/>
		<path fill="#513C18" d="M173.3,67.8c0.9,0,1.7-0.2,2.3-0.6c0.6-0.4,1.1-0.8,1.6-1.3c0.4-0.5,0.7-1,1-1.6c0.2-0.6,0.4-0.9,0.4-1.2l5.9-22.2c0.1-0.3,0.2-0.7,0.2-1.2c0-0.5-0.1-1-0.2-1.5l-1.7-6.1h5.2c-0.3,1-0.5,1.8-0.5,2.2c0,0.4,0,1,0.2,1.7l7.1,26.9c0.3,1.3,0.9,2.5,1.8,3.5c0.9,1,2.1,1.5,3.5,1.5v0.3h-11.8v-0.3c0.7-0.1,1.3-0.2,1.7-0.6c0.4-0.2,0.8-0.6,1.1-1c0.3-0.4,0.3-1.1,0.1-1.9l-2.7-9.9h-6.5l-2.7,9.9c-0.2,0.9-0.1,1.5,0.1,2c0.3,0.5,0.7,0.9,1.1,1.1c0.5,0.2,1.1,0.4,1.7,0.4v0.3h-9.2V67.8z M188.4,53.1l-2.9-11.2l-2.9,11.2H188.4z"/>
		<path fill="#513C18" d="M204,14H216v0.2c-0.7,0.1-1.4,0.2-2,0.6c-0.5,0.3-1,0.7-1.4,1.2c-0.4,0.5-0.6,1.2-0.6,2.1v45.9c0,0.9,0.2,1.6,0.6,2.1c0.4,0.5,0.9,0.9,1.4,1.2c0.6,0.3,1.3,0.5,2,0.6v0.3H204v-0.3c0.7-0.1,1.4-0.2,2-0.6c0.5-0.2,0.9-0.6,1.3-1c0.4-0.4,0.6-1.1,0.6-1.9V18.1c0-0.9-0.2-1.6-0.6-2.1c-0.4-0.5-0.8-0.9-1.3-1.2c-0.6-0.3-1.3-0.5-2-0.6V14z"/>
		<path fill="#513C18" d="M231.8,32v0.2c-0.7,0.1-1.4,0.2-2,0.6c-0.5,0.3-0.9,0.7-1.3,1.2c-0.4,0.5-0.6,1.2-0.7,2.1v27.8c0.1,0.9,0.3,1.6,0.7,2.1c0.4,0.5,0.8,0.9,1.3,1.2c0.6,0.3,1.3,0.5,2,0.6v0.3h-11.9v-0.3c0.7-0.1,1.4-0.2,2-0.6c0.5-0.2,0.9-0.6,1.3-1c0.4-0.4,0.6-1.1,0.6-1.9V36.1c0-0.9-0.2-1.6-0.6-2.1c-0.4-0.5-0.8-0.9-1.3-1.2c-0.6-0.3-1.3-0.5-2-0.6V32H231.8z M223.8,23.5c0-0.6,0.2-1,0.6-1.4c0.4-0.4,0.9-0.6,1.4-0.6c0.6,0,1,0.2,1.4,0.6c0.4,0.4,0.6,0.8,0.6,1.4s-0.2,1-0.6,1.4c-0.4,0.4-0.8,0.6-1.4,0.6c-0.6,0-1-0.2-1.4-0.6C224,24.5,223.8,24,223.8,23.5z"/>
		<path fill="#513C18" d="M235.3,61.4c0.2,1.5,0.9,2.8,2.3,3.9c1.3,1.1,2.8,1.6,4.4,1.6c0.8,0,1.6-0.2,2.3-0.7c0.7-0.5,1.4-1.1,2-1.8c0.6-0.7,1-1.6,1.4-2.6c0.3-1,0.5-2.1,0.5-3.2c0-2.1-0.6-3.9-1.7-5.2c-1.1-1.3-2.6-2.4-4.4-3.3c-1.9-0.9-3.5-2.1-4.7-3.5c-1.3-1.4-1.9-3.2-1.9-5.3c0-1.3,0.2-2.5,0.7-3.7c0.5-1.2,1.1-2.2,2-3.1c0.8-0.9,1.8-1.6,2.9-2.1c1.1-0.5,2.3-0.8,3.6-0.8c1.1,0,2.1,0.2,3.1,0.6c1,0.4,1.7,0.6,2.2,0.6c0.5,0,0.7-0.3,0.6-1h0.2l0.7,6.5l-0.3,0.1c-0.2-1.5-1-2.8-2.3-3.9c-1.3-1.1-2.7-1.6-4.3-1.6c-1.6,0-2.9,0.8-3.9,2.5c-1,1.7-1.5,3.6-1.5,5.8c0,2,0.4,3.6,1.1,5.1c0.7,1.4,2,2.4,3.8,2.9c2.1,0.7,4,1.8,5.5,3.5c1.5,1.7,2.3,3.6,2.3,5.8c0,1.3-0.3,2.5-0.8,3.7c-0.6,1.2-1.3,2.2-2.3,3.1c-1,0.9-2,1.6-3.3,2.1c-1.2,0.5-2.5,0.8-3.8,0.8c-1,0-2-0.2-2.9-0.7c-1-0.5-1.8-0.7-2.4-0.7c-0.6,0-0.8,0.4-0.7,1.2h-0.2l-0.6-6.5L235.3,61.4z"/>
	</g>
	<g>
		<path fill="#FAD5A4" d="M25.4,61.1c-1.7,0-3.5-0.3-5.4-1c-4.9-1.6-8.5-5-10.7-10c-0.9-2-1.3-3.8-1.6-5.1c1,1.6,2.4,3.7,3.6,4.7c1.4,1.2,2.9,1.3,4,1.3c0.7,0,1.3-0.1,1.9-0.1c0.5,0,1-0.1,1.5-0.1c0.4,0,0.7,0,1,0.1c0.3,0.1,0.7,0.2,1.1,0.4c2.5,0.9,6.8,2.5,9.8,3c1.2,0.2,2.2,0.3,3.2,0.3c0.6,0,1.1,0,1.4-0.1C34.5,56.4,31.9,61.1,25.4,61.1z"/>
		<path fill="#513C18" d="M33.8,54.2c-0.8,0-1.8-0.1-3.1-0.3c-3.6-0.6-8.9-2.7-10.9-3.4c-0.3-0.1-0.7-0.2-1.1-0.2c-1,0-2.2,0.2-3.4,0.2c-1.3,0-2.6-0.2-3.7-1.2C9.7,47.8,7,43,7,43s0.8,13.6,12.8,17.6c2.1,0.7,4,1,5.6,1c8.2,0,10.4-7.5,10.4-7.5S35.2,54.2,33.8,54.2z M11,50c1.5,1.3,3.1,1.4,4.3,1.4c0.7,0,1.3-0.1,2-0.1c0.5,0,1-0.1,1.4-0.1c0.4,0,0.7,0,0.9,0.1c0.3,0.1,0.7,0.2,1.1,0.4c2.5,1,6.8,2.5,9.9,3c1.2,0.2,2.3,0.3,3.3,0.3c0.1,0,0.1,0,0.2,0c-2.3,1.2-6.6,3-11.2,3c-1.3,0-2.6-0.1-3.9-0.5c-4.2-1.1-7.4-5.6-9.5-9.3C9.9,49,10.5,49.6,11,50z"/>
		<path fill="#FAD5A4" d="M35.5,53.4c-2.3-1.3-11.4-6.5-13.1-9.8c-1-2-0.8-5.9-0.6-9.3c0.1-2.3,0.2-4.4,0-6c-0.3-2-1.6-6.5-2.2-8.9c1.7,1.8,4.9,5.5,4.7,8.9c-0.1,1.5,1.3,2.4,3,3.5c1.6,1,3.5,2.3,5.1,4.4C36.6,42.1,35.8,51,35.5,53.4z"/>
		<path fill="#513C18" d="M32.7,36c-3.3-4.5-8.2-5.2-8-7.6c0.3-5-5.9-10.4-5.9-10.4s2.3,7.7,2.7,10.4c0.1,0.6,0.1,1.3,0.1,2.1c0,0.3,0,0.6,0,1c0,0.3,0,0.7,0,1c0,0.5-0.1,1.1-0.1,1.6c0,0.2,0,0.4,0,0.5c-0.1,1.8-0.2,3.7-0.1,5.4c0.1,1.5,0.3,2.8,0.8,3.8c0,0.1,0.1,0.1,0.1,0.2c0.1,0.1,0.1,0.2,0.2,0.4c0,0.1,0.1,0.1,0.1,0.2c0.1,0.1,0.2,0.3,0.3,0.4c0.1,0.1,0.1,0.1,0.2,0.2c0.8,0.9,1.9,1.8,3.1,2.7c0.2,0.1,0.4,0.3,0.6,0.4c0.5,0.4,1,0.7,1.5,1c0.1,0.1,0.2,0.1,0.3,0.2c0.8,0.5,1.6,1.1,2.4,1.6c0.1,0.1,0.2,0.1,0.3,0.2c0.2,0.1,0.4,0.2,0.6,0.4c2.3,1.4,4.1,2.4,4.1,2.4S37.8,43,32.7,36z M24.4,35.6c0.6-3.3-1-5.4-2.1-6.5c0-0.3,0-0.6-0.1-0.9c-0.2-1.6-1.1-4.8-1.8-7.3c0.2,0.3,0.5,0.6,0.7,0.9c1.3,1.7,2.8,4.2,2.7,6.5C23.7,30,25.2,31,27,32.2c1.5,1,3.5,2.2,5,4.3c3.9,5.3,3.5,13.3,3.2,16.2c-1.2-0.7-2.7-1.6-4.3-2.6C27.3,46.8,23.3,41.6,24.4,35.6z"/>
		<path fill="#FAD5A4" d="M39.1,54.1c-1.2,0-2.2-0.2-2.7-0.4c1.1-2.4,6.5-14.2,10-16.8c2-1.5,4.4-4.5,7-9c1.4-2.3,2.4-4.4,3-5.5c1.2,2.9,3.3,8.7,2.2,11c-0.5,1-1,2.1-1.5,3.3c-1.5,3.4-3.1,7.3-6.3,11C46.3,53,41.9,54.1,39.1,54.1L39.1,54.1z"/>
		<path fill="#513C18" d="M56.4,21.5c0,0-5.5,11.6-10.3,15.1C42.1,39.6,35.9,54,35.9,54s1.2,0.5,3.2,0.5c2.9,0,7.4-1.1,12-6.5c4.3-5,5.9-10.5,7.8-14.4C60.5,30.5,56.4,21.5,56.4,21.5z M37,53.5c1.4-3.1,6.4-13.8,9.6-16.2c3.8-2.8,8-10.4,9.7-13.8c0.4,0.9,0.8,2,1.1,3.2c0.2,0.7,0.4,1.3,0.5,1.9c0.1,2.2-0.5,4.4-2.3,5.8c-1.8,1.4-1.7,8.2-5.9,12.5c-3.6,3.7-9.6,5.9-12.4,6.8C37.3,53.6,37.1,53.5,37,53.5z"/>
		<path fill="#FAD5A4" d="M45.9,59.4c-2.1,0-6.8-3.3-9.2-5.1c2.2-0.5,8.1-2,11-2c0.4,0,0.6,0,0.9,0.1c0.6,0.1,1.1,0.2,1.6,0.2c2.6,0,4.2-1.4,5.4-2.4c0.7-0.6,1.4-1.2,2.1-1.4c0.7-0.2,1.8-0.3,2.5-0.3c-1.4,2.2-6.4,9.4-14.1,10.9C46.1,59.4,46,59.4,45.9,59.4z"/>
		<path fill="#513C18" d="M57.6,48.4c-2.1,0.6-3.5,3.8-7.4,3.8c-0.5,0-1,0-1.6-0.2c-0.3,0-0.6-0.1-1-0.1c-3.6,0-11.9,2.2-11.9,2.2s7.1,5.7,10.1,5.7c0.1,0,0.2,0,0.4,0C55.6,58,61,48,61,48S58.7,48.1,57.6,48.4z M46.1,59c-0.1,0-0.1,0-0.2,0c-0.6,0-2.2-0.4-5.7-2.7c-1-0.6-1.8-1.3-2.5-1.8c2.6-0.6,7.5-1.7,10-1.7c0.3,0,0.6,0,0.8,0.1c0.6,0.1,1.2,0.2,1.7,0.2c2.7,0,4.4-1.4,5.7-2.5c0.7-0.6,1.3-1.1,1.9-1.3c0.4-0.1,1-0.2,1.6-0.2c-0.5,0.4-1.1,0.8-1.3,1.2c-1.4,2.8-5.9,5.9-8.9,7.8C48.3,58.4,47.2,58.7,46.1,59z"/>
		<path fill="#FAD5A4" d="M44.8,71.6c-3.8,0-10.3-3.9-12.3-8.3c-0.2-0.5-0.3-1.8,1.5-5.2c0.7-1.3,1.4-2.5,1.8-3.2c0.5,1.1,1.5,3.1,2.3,3.7c2.1,1.8,6.9,3.9,9.7,3.9l0,0c0.3,0,0.5,0,0.7-0.1c1.5-0.2,4-2.5,5.5-3.9C53,62,50,70.6,45.7,71.5C45.4,71.6,45.1,71.6,44.8,71.6z"/>
		<path fill="#513C18" d="M54.8,57.1L54.8,57.1c0,0-4.4,4.6-6.4,4.9c-0.2,0-0.4,0-0.7,0c-2.8,0-7.5-2.2-9.4-3.8c-0.9-0.8-2.5-4.3-2.5-4.3s0,0,0,0v0c0,0-0.1,0.2-0.3,0.5c0,0,0.1-0.1,0.1-0.1c0,0-0.1,0.1-0.1,0.1l0,0l0,0c0,0,0,0,0,0c0,0-0.1,0.1-0.1,0.1c0,0,0,0,0,0.1c0,0-0.1,0.1-0.1,0.1c0,0,0,0.1-0.1,0.1c0,0-0.1,0.1-0.1,0.1c0,0,0,0.1-0.1,0.1c0,0.1-0.1,0.1-0.1,0.2c0,0,0,0.1-0.1,0.1c-0.1,0.2-0.2,0.4-0.3,0.6c0,0,0,0.1-0.1,0.1c0,0.1-0.1,0.1-0.1,0.2c0,0,0,0.1-0.1,0.1c0,0.1-0.1,0.1-0.1,0.2c0,0,0,0.1-0.1,0.1c0,0.1-0.1,0.1-0.1,0.2c0,0,0,0.1-0.1,0.1c0,0.1-0.1,0.2-0.1,0.3c0,0,0,0.1,0,0.1c-0.1,0.1-0.1,0.2-0.2,0.4c0,0,0,0.1,0,0.1c0,0.1-0.1,0.2-0.1,0.3c0,0,0,0.1-0.1,0.1c0,0.1-0.1,0.2-0.1,0.2c0,0,0,0.1-0.1,0.1c0,0.1-0.1,0.2-0.1,0.2c0,0,0,0.1-0.1,0.1c0,0.1-0.1,0.2-0.1,0.2c0,0,0,0.1,0,0.1c-0.1,0.2-0.2,0.5-0.3,0.7c0,0,0,0.1,0,0.1c0,0.1-0.1,0.2-0.1,0.2c0,0,0,0.1,0,0.1c0,0.1,0,0.1-0.1,0.2c0,0,0,0.1,0,0.1c0,0.1,0,0.1-0.1,0.2c0,0,0,0.1,0,0.1c0,0.1,0,0.2-0.1,0.2c0,0,0,0.1,0,0.1c0,0.1,0,0.2-0.1,0.3c0,0,0,0,0,0.1c0,0.1,0,0.1,0,0.2c0,0,0,0.1,0,0.1c0,0.1,0,0.1,0,0.2c0,0,0,0.1,0,0.1c0,0.1,0,0.1,0,0.2c0,0,0,0.1,0,0.1c0,0.1,0,0.1,0,0.2c0,0,0,0,0,0.1c0,0.1,0,0.1,0.1,0.2c0.4,1,1.1,1.9,1.9,2.8c0.5,0.5,1,1,1.5,1.5c0.4,0.4,0.8,0.7,1.3,1c0.3,0.2,0.6,0.4,0.9,0.6c0.1,0.1,0.3,0.2,0.5,0.3c0.3,0.2,0.6,0.4,0.9,0.5c2,1.1,4.1,1.8,5.7,1.8c0.4,0,0.7,0,1-0.1c0.5-0.1,0.9-0.3,1.3-0.5s0.8-0.5,1.2-0.9c0.2-0.2,0.5-0.4,0.7-0.7C52.7,65.7,54.8,57.1,54.8,57.1L54.8,57.1L54.8,57.1z M35.7,54.2c0,0,0,0.1-0.1,0.1C35.7,54.3,35.7,54.2,35.7,54.2z M35.8,54.1C35.8,54.1,35.8,54.1,35.8,54.1C35.8,54.1,35.8,54.1,35.8,54.1z M35.8,54.1C35.8,54.1,35.7,54.2,35.8,54.1C35.7,54.2,35.8,54.1,35.8,54.1z M35.7,55.7c0.6,1.1,1.4,2.6,2.1,3.2c2.1,1.8,7,4,10,4c0.3,0,0.6,0,0.8-0.1c1-0.1,2.4-1.1,4.3-2.8c0.1,0,0.1-0.1,0.2-0.1c-1.4,2.1-3.2,4.6-4.3,4.7c-2,0.3-2.5,5.4-6.7,5.4c-0.7,0-1.6-0.2-2.6-0.5c-0.4-0.2-0.9-0.5-1.3-0.8c-2.1-1.4-3.9-3.1-4.8-4.8C33,63,33,62.1,33.1,61.2C33.6,59.7,34.6,57.6,35.7,55.7z"/>
		<ellipse fill="#513C18" cx="34.8" cy="48.1" rx="10.8" ry="10.8"/>
		<path fill="#EF5E24" d="M35.3,38.1c-5.3,0-9.6,4.3-9.6,9.6s4.3,9.6,9.6,9.6c5.3,0,9.6-4.3,9.6-9.6S40.5,38.1,35.3,38.1z"/>
		<circle fill="#FFFFFF" cx="39.3" cy="47.8" r="2.1"/>
	</g>
</svg>